<svg width="494" height="286" xmlns="http://www.w3.org/2000/svg" xmlns:xlink="http://www.w3.org/1999/xlink" overflow="hidden"><defs><clipPath id="clip0"><rect x="381" y="206" width="494" height="286"/></clipPath><clipPath id="clip1"><rect x="518" y="280" width="108" height="108"/></clipPath><clipPath id="clip2"><rect x="518" y="280" width="108" height="108"/></clipPath><clipPath id="clip3"><rect x="518" y="280" width="108" height="108"/></clipPath></defs><g clip-path="url(#clip0)" transform="translate(-381 -206)"><g clip-path="url(#clip1)"><g clip-path="url(#clip2)"><g clip-path="url(#clip3)"><path d="M568.917 319.357C568.917 319.357 569.998 319.357 580.388 322.953L590.491 282.092C590.832 280.773 589.426 279.59 588.188 280.136 587.147 280.596 580.438 284.302 580.438 284.302Z" stroke="#000000" stroke-width="0.21094" fill="#ED7D31"/><path d="M579.995 351.495C580.48 349.717 581.273 346.804 581.977 343.998L575.858 346.25 570.313 343.238 570.313 349.09C569.47 348.997 568.688 349.539 568.477 350.359L561.172 379.905C560.312 383.396 562.433 386.927 565.92 387.806 569.307 388.664 572.99 386.477 573.815 383.043L581.118 353.506C581.33 352.644 580.839 351.766 579.995 351.495Z" stroke="#000000" stroke-width="0.21094" fill="#ED7D31"/><path d="M623.904 315.67 580.393 326.526C580.393 326.526 569.24 322.651 568.918 322.732L554.838 326.245C554.576 325.383 553.689 324.875 552.813 325.085L522.945 332.538C519.455 333.418 517.33 336.952 518.192 340.448 519.042 343.886 522.642 346.097 526.097 345.216L555.956 337.766C556.658 337.591 557.17 336.987 557.228 336.266L564.81 336.327C565.581 336.748 574.224 342.965 575.162 342.909L622.701 325.415 625.865 317.967C626.41 316.717 625.212 315.332 623.904 315.67ZM573.688 335.688C572.756 335.688 572 334.932 572 334 572 333.068 572.756 332.313 573.688 332.313 574.619 332.313 575.375 333.068 575.375 334 575.375 334.932 574.619 335.688 573.688 335.688Z" stroke="#000000" stroke-width="0.21094" fill="#ED7D31"/></g></g></g><rect x="448.5" y="240.5" width="309" height="165" stroke="#000000" stroke-width="1.33333" stroke-linejoin="round" stroke-miterlimit="10" fill="none"/><text font-family="Calibri,Calibri_MSFontService,sans-serif" font-weight="700" font-size="128" transform="translate(458.08 365)">P  I  T  <tspan font-size="53" x="-31.4012" y="80">Pruning In Time</tspan></text></g></svg>